<svg width="138" height="57" viewBox="0 0 138 57" fill="none" xmlns="http://www.w3.org/2000/svg">
<path d="M23.5278 2H2V54.3142H23.5278V2Z" fill="black" stroke="black" style="fill:black;fill-opacity:1;stroke:black;stroke-opacity:1;" stroke-width="3.74991" stroke-miterlimit="10"/>
<path d="M39.2095 25.3784C44.9084 23.9042 49.0934 19.3824 49.0934 13.9637C49.0991 7.3565 42.9135 2.00001 35.2792 2.00001H23.5249V54.3142H33.4145C42.9248 54.3142 50.6299 47.6391 50.6299 39.4049C50.6299 32.9335 45.8648 27.4441 39.2152 25.3813H39.2095V25.3784Z" fill="black" stroke="black" style="fill:black;fill-opacity:1;stroke:black;stroke-opacity:1;" stroke-width="3.74991" stroke-miterlimit="10"/>
<path d="M80.3328 2.00001H58.8049V54.3142H80.3328V2.00001Z" fill="black" stroke="black" style="fill:black;fill-opacity:1;stroke:black;stroke-opacity:1;" stroke-width="3.74991" stroke-miterlimit="10"/>
<path d="M87.4746 28.1543C87.4746 42.5996 100.995 54.3086 117.672 54.3086V2.00001C100.997 2.00001 87.4746 13.7118 87.4746 28.1543Z" fill="black" stroke="black" style="fill:black;fill-opacity:1;stroke:black;stroke-opacity:1;" stroke-width="3.74991" stroke-miterlimit="10"/>
<path d="M119.288 3.57328L136 19.9116V2.00001H119.928C119.107 2.00001 118.7 2.99887 119.288 3.57328Z" fill="black" stroke="black" style="fill:black;fill-opacity:1;stroke:black;stroke-opacity:1;" stroke-width="3.74991" stroke-miterlimit="10"/>
<path d="M118.915 53.1003L136 36.3998V54.3086H119.41C118.776 54.3114 118.465 53.5446 118.915 53.1003Z" fill="black" stroke="black" style="fill:black;fill-opacity:1;stroke:black;stroke-opacity:1;" stroke-width="3.74991" stroke-miterlimit="10"/>
<path d="M23.5278 2H2V54.3142H23.5278V2Z" fill="#D3D3D3" style="fill:#D3D3D3;fill:color(display-p3 0.8275 0.8275 0.8275);fill-opacity:1;"/>
<path d="M39.2095 25.3784C44.9084 23.9042 49.0934 19.3824 49.0934 13.9637C49.0991 7.3565 42.9135 2.00001 35.2792 2.00001H23.5249V54.3142H33.4145C42.9248 54.3142 50.6299 47.6391 50.6299 39.4049C50.6299 32.9335 45.8648 27.4441 39.2152 25.3813H39.2095V25.3784Z" fill="#919191" style="fill:#919191;fill:color(display-p3 0.5686 0.5686 0.5686);fill-opacity:1;"/>
<path d="M80.3328 2.00001H58.8049V54.3142H80.3328V2.00001Z" fill="#D3D3D3" style="fill:#D3D3D3;fill:color(display-p3 0.8275 0.8275 0.8275);fill-opacity:1;"/>
<path d="M87.4746 28.1543C87.4746 42.5996 100.995 54.3086 117.672 54.3086V2.00001C100.997 2.00001 87.4746 13.7118 87.4746 28.1543Z" fill="#D3D3D3" style="fill:#D3D3D3;fill:color(display-p3 0.8275 0.8275 0.8275);fill-opacity:1;"/>
<path d="M117.678 2.00001L136 19.9116V2.00001H117.678Z" fill="#919191" style="fill:#919191;fill:color(display-p3 0.5686 0.5686 0.5686);fill-opacity:1;"/>
<path d="M117.678 54.3114L136 36.3998V54.3114H117.678Z" fill="#919191" style="fill:#919191;fill:color(display-p3 0.5686 0.5686 0.5686);fill-opacity:1;"/>
</svg>
